<svg width="10" height="16" viewBox="0 0 10 16" fill="none" xmlns="http://www.w3.org/2000/svg">
<path d="M6.99609 6.0918C8.20329 6.09201 9.18164 7.07107 9.18164 8.27832V13.0879C9.18143 14.295 8.20316 15.2732 6.99609 15.2734H2.18652C0.979275 15.2734 0.000213599 14.2951 0 13.0879V8.27832C0 7.07094 0.979143 6.0918 2.18652 6.0918H6.99609ZM6.33008 8.73145C6.28259 8.50446 5.99262 8.4341 5.84668 8.61426L5.09375 9.54395C4.94723 9.51091 4.79517 9.49222 4.63867 9.49219C4.48798 9.49219 4.34073 9.5084 4.19922 9.53906L3.45117 8.61426C3.30526 8.43393 3.01528 8.5044 2.96777 8.73145L2.60645 10.457C2.58068 10.5802 2.64026 10.6941 2.73633 10.751C2.63161 10.9982 2.57422 11.2703 2.57422 11.5557C2.57422 12.6955 3.49884 13.6191 4.63867 13.6191C5.77831 13.6189 6.70215 12.6954 6.70215 11.5557C6.70215 11.2731 6.64477 11.004 6.54199 10.7588C6.64854 10.7061 6.71876 10.5878 6.69141 10.457L6.33008 8.73145Z" fill="#5B5DF0"/>
<path d="M4.72131 0.845032C6.83638 0.845032 8.60019 2.72274 9.00549 5.2171H8.22522C7.85986 3.24131 6.44901 1.76286 4.75647 1.75031C3.04941 1.73815 1.61455 3.22088 1.24573 5.2171H0.437134C0.842403 2.72292 2.60649 0.845411 4.72131 0.845032Z" fill="#5B5DF0"/>
</svg>
