<svg width="14" height="23" viewBox="0 0 14 23" fill="none" xmlns="http://www.w3.org/2000/svg">
<circle cx="6.60832" cy="9.34258" r="4.72026" fill="#5B5DF0"/>
<rect x="2.51746" y="14.3776" width="8.18178" height="8.18178" rx="2.51747" fill="#5B5DF0"/>
<path d="M2.78739 2.88252C2.89604 2.36324 3.55898 2.2031 3.89269 2.61552L6.42953 5.75075C6.72031 6.11012 6.53739 6.64986 6.08805 6.75841L2.7253 7.57072C2.27596 7.67927 1.86682 7.28254 1.96149 6.83006L2.78739 2.88252Z" fill="#5B5DF0"/>
<path d="M2.9218 3.75266C3.03045 3.23338 3.69339 3.07324 4.0271 3.48566L5.02203 4.71528C5.31281 5.07464 5.1299 5.61439 4.68055 5.72293L3.3617 6.04152C2.91235 6.15006 2.50322 5.75334 2.59789 5.30086L2.9218 3.75266Z" fill="#7474FF"/>
<path d="M9.37177 2.61554C9.70547 2.20311 10.3684 2.36325 10.4771 2.88253L11.303 6.83007C11.3977 7.28254 10.9885 7.67927 10.5392 7.57073L7.17644 6.75844C6.72709 6.6499 6.54417 6.11015 6.83495 5.75078L9.37177 2.61554Z" fill="#5B5DF0"/>
<path d="M9.13067 3.54371C9.47152 3.13717 10.1316 3.30885 10.2311 3.82995L10.5377 5.43419C10.6244 5.88825 10.2084 6.27778 9.76105 6.16141L8.40517 5.80874C7.95779 5.69237 7.78432 5.14951 8.08132 4.79528L9.13067 3.54371Z" fill="#7474FF"/>
</svg>
