<svg width="84" height="153" viewBox="0 0 84 153" fill="none" xmlns="http://www.w3.org/2000/svg">
<rect x="62" y="67.85" width="12" height="25" rx="6" transform="rotate(-18.7134 62 67.85)" fill="#5B5DF0"/>
<path d="M7.98512 53.1282C3.84548 31.8065 20.1764 12 41.8962 12C63.3522 12 79.6181 31.3545 75.9249 52.4903L71.6006 77.2375C69.099 91.5537 56.6691 102 42.136 102C27.8146 102 15.5028 91.8486 12.7732 77.7898L7.98512 53.1282Z" fill="#5B5DF0"/>
<path d="M38.2978 75H43.7022C49.3895 75 54 79.5911 54 85.2545V88.7455C54 94.4089 49.3895 99 43.7022 99H38.2978C32.6105 99 28 94.4089 28 88.7455V85.2545C28 79.5911 32.6105 75 38.2978 75Z" fill="#7474FF"/>
<path d="M61.2993 36.5066C75.177 42.8052 77.7931 39.5583 75.0685 19.4178C72.3438 -0.72278 69.0886 -2.20024 57.9355 11.6417C46.7825 25.4837 47.4216 30.208 61.2993 36.5066Z" fill="#5B5DF0"/>
<path d="M62.0351 30.575C71.3709 34.8122 73.1308 32.6279 71.2979 19.079C69.4649 5.53007 67.2751 4.53616 59.7722 13.8479C52.2694 23.1596 52.6993 26.3378 62.0351 30.575Z" fill="#7474FF"/>
<path d="M23.7428 36.5066C9.86518 42.8052 7.24904 39.5583 9.97368 19.4178C12.6983 -0.72278 15.9536 -2.20024 27.1066 11.6417C38.2596 25.4837 37.6205 30.208 23.7428 36.5066Z" fill="#5B5DF0"/>
<path d="M22.5328 30.9719C13.5748 35.3085 11.8861 33.073 13.6448 19.2062C15.4036 5.33928 17.5048 4.32204 24.7041 13.8523C31.9033 23.3825 31.4907 26.6353 22.5328 30.9719Z" fill="#7474FF"/>
<rect x="5" y="66.768" width="13" height="25.0727" rx="6.5" transform="rotate(-7.81651 5 66.768)" fill="#5B5DF0"/>
<path d="M11.3647 70.0437C11.1835 68.0339 12.9981 66.422 14.9725 66.8389L31.6199 70.3545C33.0072 70.6475 34 71.8718 34 73.2898V96.2006C34 98.1388 32.1896 99.5683 30.3042 99.1188L15.7269 95.6432C14.4732 95.3442 13.5506 94.278 13.4348 92.9944L11.3647 70.0437Z" fill="#505050"/>
<path d="M26.6138 74.6242C27.4552 74.8068 28.0433 75.5686 28.0066 76.4287L27.9931 76.7438C27.9458 77.8445 26.9058 78.6291 25.8344 78.3726C25.0889 78.194 24.5464 77.5512 24.4949 76.7864L24.4732 76.4717C24.3943 75.2973 25.4635 74.3748 26.6138 74.6242Z" fill="white" stroke="black" stroke-width="0.2"/>
<rect x="6" y="87.7388" width="13" height="20" rx="6.5" transform="rotate(-64.5531 6 87.7388)" fill="#5B5DF0"/>
<path d="M17 52.9662C17 47.462 21.2533 43 26.5 43C31.7467 43 36 47.462 36 52.9662V58.0338C36 63.538 31.7467 68 26.5 68C21.2533 68 17 63.538 17 58.0338V52.9662Z" fill="#3636BE"/>
<path d="M19 53.5743C19 49.3911 22.3579 46 26.5 46C30.6421 46 34 49.3911 34 53.5743V57.4257C34 61.6089 30.6421 65 26.5 65C22.3579 65 19 61.6089 19 57.4257V53.5743Z" fill="white"/>
<path d="M21.75 54.1179C21.75 51.1157 23.8766 48.6818 26.5 48.6818C29.1234 48.6818 31.25 51.1157 31.25 54.1179V56.8821C31.25 59.8844 29.1234 62.3182 26.5 62.3182C23.8766 62.3182 21.75 59.8844 21.75 56.8821V54.1179Z" fill="#1A1A1A"/>
<path d="M21.75 51.1772C21.75 50.4266 22.5475 49.8182 23.5312 49.8182C24.515 49.8182 25.3125 50.4266 25.3125 51.1772V51.8682C25.3125 52.6188 24.515 53.2273 23.5312 53.2273C22.5475 53.2273 21.75 52.6188 21.75 51.8682V51.1772Z" fill="#FFF8F8"/>
<path d="M47 54.973C47 50.5696 50.3579 47 54.5 47C58.6421 47 62 50.5696 62 54.973V59.027C62 63.4304 58.6421 67 54.5 67C50.3579 67 47 63.4304 47 59.027V54.973Z" fill="white"/>
<path d="M49.5 55.4797C49.5 52.1772 51.7386 49.5 54.5 49.5C57.2614 49.5 59.5 52.1772 59.5 55.4797V58.5203C59.5 61.8228 57.2614 64.5 54.5 64.5C51.7386 64.5 49.5 61.8228 49.5 58.5203V55.4797Z" fill="#1A1A1A"/>
<path d="M49.5 52.2449C49.5 51.4193 50.3395 50.75 51.375 50.75C52.4105 50.75 53.25 51.4193 53.25 52.2449V53.0051C53.25 53.8307 52.4105 54.5 51.375 54.5C50.3395 54.5 49.5 53.8307 49.5 53.0051V52.2449Z" fill="#FFF8F8"/>
<path d="M37.4723 63.6456C38.4609 62.0893 43.7283 62.1315 44.6878 63.7034C45.6474 65.2753 42.9743 69.4831 41.0261 69.4675C39.0779 69.4519 36.4836 65.2019 37.4723 63.6456Z" fill="#1A1A1A"/>
<path d="M37.4723 63.6456C38.4609 62.0893 43.7283 62.1315 44.6878 63.7034C45.6474 65.2753 42.9743 69.4831 41.0261 69.4675C39.0779 69.4519 36.4836 65.2019 37.4723 63.6456Z" fill="#1A1A1A"/>
<path d="M38.6916 64.7222C38.9016 64.7222 39.0719 64.5349 39.0719 64.3038C39.0719 64.0727 38.9016 63.8854 38.6916 63.8854C38.4815 63.8854 38.3112 64.0727 38.3112 64.3038C38.3112 64.5349 38.4815 64.7222 38.6916 64.7222Z" fill="white"/>
<path d="M41 69C41 69 41.0822 71.7874 44 70.7809" stroke="#1A1A1A" stroke-width="0.5" stroke-linejoin="bevel"/>
<path d="M41 69C41 69 40.9178 71.7874 38 70.7809" stroke="#1A1A1A" stroke-width="0.5" stroke-linejoin="bevel"/>
<path d="M12.5331 105L1 125.026L21.5 145.64H69.2626H57L80.5 125.026L69.2999 105.498V105.31L9.5 105H12.5331Z" fill="#C14949"/>
<path d="M69.4999 105.202L80 125H1L12.5 105.202V105L69.5 105.537L69.4999 105.202Z" fill="#D72A2A"/>
<path d="M18.5 121C19.8807 121 21 119.881 21 118.5C21 117.119 19.8807 116 18.5 116C17.1193 116 16 117.119 16 118.5C16 119.881 17.1193 121 18.5 121Z" fill="#DDFF55"/>
<path d="M42.5 121C43.8807 121 45 119.881 45 118.5C45 117.119 43.8807 116 42.5 116C41.1193 116 40 117.119 40 118.5C40 119.881 41.1193 121 42.5 121Z" fill="#5AFF55"/>
<path d="M62.5 121C63.8807 121 65 119.881 65 118.5C65 117.119 63.8807 116 62.5 116C61.1193 116 60 117.119 60 118.5C60 119.881 61.1193 121 62.5 121Z" fill="#55B5FF"/>
<path d="M15.687 149.522L15.4835 138.265L25.3337 143.717L15.687 149.522Z" fill="#C14949"/>
<path d="M63.0323 149.518L53.3505 143.772L63.1672 138.26L63.0323 149.518Z" fill="#C14949"/>
</svg>
