<svg width="78" height="54" viewBox="0 0 78 54" fill="none" xmlns="http://www.w3.org/2000/svg">
<path d="M28.033 14.9277C28.033 8.70223 23.2855 3.65552 17.4292 3.65552C11.5729 3.65552 6.82538 8.70223 6.82538 14.9277V24.892C6.82538 31.1174 11.5729 36.1641 17.4292 36.1641C23.2855 36.1641 28.033 31.1174 28.033 24.892V14.9277Z" fill="#5B5DF0"/>
<path d="M32.7417 23.7035L28.3784 19.9983C27.2977 19.0805 25.7009 19.1852 24.8119 20.232C23.923 21.2789 24.0784 22.8715 25.1591 23.7892L29.5224 27.4945C30.6031 28.4123 32.1999 28.3076 33.0889 27.2608C33.9778 26.2139 33.8224 24.6213 32.7417 23.7035Z" fill="#5B5DF0"/>
<path d="M1.95684 23.3891L6.32012 19.6839C7.40084 18.7661 8.99761 18.8708 9.88659 19.9176C10.7756 20.9645 10.6201 22.5571 9.53939 23.4748L5.17611 27.1801C4.09539 28.0979 2.49862 27.9932 1.60965 26.9464C0.720667 25.8995 0.876111 24.3069 1.95684 23.3891Z" fill="#5B5DF0"/>
<path d="M11.5843 9.61145C8.05258 11.2147 7.3868 10.3882 8.0802 5.26171C8.7736 0.135202 9.60203 -0.240865 12.4404 3.28242C15.2787 6.8057 15.1161 8.00822 11.5843 9.61145Z" fill="#5B5DF0"/>
<path d="M22.9448 9.29227C26.4766 10.8955 27.1423 10.0691 26.4489 4.94254C25.7555 -0.183974 24.9271 -0.560041 22.0888 2.96324C19.2504 6.48653 19.4131 7.68904 22.9448 9.29227Z" fill="#5B5DF0"/>
<path d="M7.50054 38.0238L1.18997 44.8815L7.45649 52.0741V52.2481H27.3527V52.2673L33.6554 45.0331L27.3658 38.1981V38.1324H7.50048L7.50054 38.0238Z" fill="#D95858"/>
<path d="M27.3044 38L33.4189 44.9671H1L6.95027 38.1872V38.1166H27.3044L27.3044 38Z" fill="#D95858"/>
<path d="M5.93757 49.1083L9.85051 51.4435L5.65447 53.6865L5.93757 49.1083Z" fill="#D95858"/>
<path d="M28.9912 49.0329L25.1454 51.4058L29.2694 53.685L28.9912 49.0329Z" fill="#D95858"/>
<path d="M43.9687 28.3953C42.3646 28.3953 41.0573 27.8745 40.0469 26.8328C39.0364 25.7859 38.5312 24.424 38.5312 22.7469C38.5312 20.976 39.0442 19.5437 40.0703 18.45C41.0963 17.3562 42.4557 16.8094 44.1484 16.8094C45.7474 16.8094 47.039 17.3328 48.0234 18.3797C49.013 19.4266 49.5078 20.8068 49.5078 22.5203C49.5078 24.2807 48.9948 25.7 47.9687 26.7781C46.9479 27.8562 45.6146 28.3953 43.9687 28.3953ZM44.0781 18.9812C43.1927 18.9812 42.4896 19.3146 41.9687 19.9812C41.4479 20.6427 41.1875 21.5203 41.1875 22.6141C41.1875 23.7234 41.4479 24.601 41.9687 25.2469C42.4896 25.8927 43.1719 26.2156 44.0156 26.2156C44.8854 26.2156 45.5755 25.9031 46.0859 25.2781C46.5963 24.6479 46.8515 23.7755 46.8515 22.6609C46.8515 21.4995 46.6041 20.5958 46.1094 19.95C45.6146 19.3042 44.9375 18.9812 44.0781 18.9812ZM57.4687 28.2H50.289V27.1766L54.3047 22.0203H50.6875V20.2H57.4375V21.4187L53.6328 26.3797H57.4687V28.2ZM65.1406 28.2H57.9609V27.1766L61.9765 22.0203H58.3594V20.2H65.1094V21.4187L61.3047 26.3797H65.1406V28.2ZM74.0937 20.2L70.8437 28.8406C70.0625 30.9187 68.8854 31.9578 67.3125 31.9578C66.7135 31.9578 66.2213 31.8901 65.8359 31.7547V29.7859C66.164 29.9786 66.5208 30.075 66.9062 30.075C67.5416 30.075 67.9844 29.7755 68.2344 29.1766L68.6562 28.1844L65.4062 20.2H68.1406L69.6328 25.0672C69.7265 25.3693 69.7995 25.726 69.8515 26.1375H69.8828C69.9297 25.8354 70.0156 25.4839 70.1406 25.0828L71.6484 20.2H74.0937Z" fill="#D95858"/>
<path d="M55.9048 42.6747C54.8794 43.2655 53.605 43.5609 52.0815 43.5609C50.3921 43.5609 49.0591 43.0946 48.0825 42.162C47.1108 41.2245 46.625 39.9354 46.625 38.2948C46.625 36.6444 47.1572 35.2992 48.2217 34.2591C49.2861 33.2191 50.7021 32.6991 52.4697 32.6991C53.583 32.6991 54.5644 32.8529 55.414 33.1605V35.3797C54.6035 34.911 53.6123 34.6766 52.4404 34.6766C51.459 34.6766 50.6582 34.9964 50.0381 35.6361C49.4228 36.2708 49.1152 37.1205 49.1152 38.1849C49.1152 39.264 49.3911 40.099 49.9429 40.6898C50.4995 41.2806 51.249 41.576 52.1914 41.576C52.7578 41.576 53.207 41.4955 53.539 41.3343V39.2835H51.437V37.3939H55.9048V42.6747ZM61.2954 43.5609C60.0454 43.5609 59.0615 43.2118 58.3437 42.5135C57.6308 41.8104 57.2744 40.8582 57.2744 39.6571C57.2744 38.4168 57.6455 37.4476 58.3877 36.7494C59.1299 36.0462 60.1333 35.6947 61.3979 35.6947C62.6431 35.6947 63.6196 36.0462 64.3276 36.7494C65.0356 37.4476 65.3896 38.3729 65.3896 39.5252C65.3896 40.7704 65.0234 41.7542 64.291 42.4769C63.5635 43.1996 62.5649 43.5609 61.2954 43.5609ZM61.354 37.4671C60.8071 37.4671 60.3823 37.6551 60.0796 38.0311C59.7768 38.4071 59.6255 38.9393 59.6255 39.6278C59.6255 41.0682 60.2065 41.7884 61.3686 41.7884C62.477 41.7884 63.0312 41.0487 63.0312 39.5692C63.0312 38.1678 62.4722 37.4671 61.354 37.4671Z" fill="#5B5DF0"/>
</svg>
