<svg width="30" height="34" viewBox="0 0 30 34" fill="none" xmlns="http://www.w3.org/2000/svg">
<rect x="5.22656" y="28.2717" width="18.7686" height="4.98913" rx="2.49457" fill="#DDCF34"/>
<path d="M7.84009 26.6087C7.84009 25.2966 8.90376 24.2329 10.2159 24.2329H19.0062C20.3183 24.2329 21.382 25.2966 21.382 26.6087V28.2717H7.84009V26.6087Z" fill="#FFEE2F"/>
<rect x="11.166" y="17.5807" width="6.88975" height="6.88975" fill="#FFED2F"/>
<path d="M5.7019 2.61336H23.5202V12.8292C23.5202 15.4534 21.3929 17.5807 18.7687 17.5807H10.4535C7.82925 17.5807 5.7019 15.4534 5.7019 12.8292V2.61336Z" fill="#FFED2F"/>
<path d="M14.7297 4.75155L15.5298 7.21398H18.1189L16.0243 8.73585L16.8243 11.1983L14.7297 9.67641L12.635 11.1983L13.4351 8.73585L11.3404 7.21398H13.9296L14.7297 4.75155Z" fill="#FFCB1E"/>
<path d="M5.7019 2.61335C5.7019 1.17004 6.87194 0 8.31526 0H20.9069C22.3502 0 23.5202 1.17004 23.5202 2.61335H5.7019Z" fill="#DDCF34"/>
<path d="M5.70175 4.27639H2.13808C1.48203 4.27639 0.950195 4.80823 0.950195 5.46428V10.691C0.950195 11.347 1.48203 11.8789 2.13808 11.8789H5.70175" stroke="#FFED2F" stroke-width="1.90062"/>
<path d="M23.5202 11.8789L27.0838 11.8789C27.7399 11.8789 28.2717 11.347 28.2717 10.691L28.2717 5.46429C28.2717 4.80824 27.7399 4.2764 27.0838 4.2764L23.5202 4.2764" stroke="#FFED2F" stroke-width="1.90062"/>
<circle cx="9.2655" cy="4.98914" r="0.950311" fill="white"/>
<rect x="8.55273" y="6.4146" width="1.42547" height="2.61335" rx="0.712733" fill="white"/>
</svg>
