<svg width="16" height="29" viewBox="0 0 16 29" fill="none" xmlns="http://www.w3.org/2000/svg">
<path d="M0 7.89805C0 7.27614 0.268467 6.6845 0.736502 6.27497L6.4877 1.24267C7.30083 0.531183 8.51496 0.531182 9.32809 1.24267L15.0793 6.27497C15.5473 6.6845 15.8158 7.27614 15.8158 7.89805V14.378V20.8662C15.8158 21.4833 15.5514 22.0709 15.0896 22.4802L9.33845 27.5779C8.52202 28.3015 7.29377 28.3015 6.47734 27.5779L0.726145 22.4802C0.264343 22.0709 0 21.4833 0 20.8662V7.89805Z" fill="#DF6565"/>
<path d="M1.83276 9.6495C1.83276 9.02752 2.10129 8.43582 2.56941 8.02629L6.52336 4.56721C7.33644 3.8559 8.55037 3.8559 9.36346 4.56721L13.3174 8.02629C13.7855 8.43582 14.0541 9.02752 14.0541 9.6495V14.4331V19.2251C14.0541 19.8422 13.7897 20.4298 13.3278 20.8392L9.37382 24.3432C8.55743 25.0666 7.32939 25.0666 6.513 24.3432L2.55906 20.8392C2.09716 20.4298 1.83276 19.8422 1.83276 19.2251V9.6495Z" fill="#BF4D4D"/>
<path d="M3.62988 11.4374C3.62988 10.8089 3.90409 10.2116 4.38075 9.80186L6.53745 7.94807C7.34587 7.25319 8.54069 7.25318 9.34911 7.94807L11.5058 9.80186C11.9825 10.2116 12.2567 10.8089 12.2567 11.4374V14.4438V17.4585C12.2567 18.0822 11.9866 18.6754 11.5162 19.085L9.35952 20.9629C8.54767 21.6698 7.33889 21.6698 6.52703 20.9629L4.37034 19.085C3.89992 18.6754 3.62988 18.0822 3.62988 17.4585V11.4374Z" fill="#B14C4C"/>
<rect x="2.91089" y="6.02077" width="1.4378" height="3.23505" rx="0.7189" fill="white"/>
</svg>
